<svg width="100" height="28" viewBox="0 0 100 28" fill="none" xmlns="http://www.w3.org/2000/svg">
<g clip-path="url(#clip0_610_250)">
<path d="M13.7691 28C21.4001 28 27.5862 21.732 27.5862 14C27.5862 6.26801 21.4001 0 13.7691 0C6.52919 0 0.589864 5.6419 0 12.8232H18.2631V15.1768H9.91922e-08C0.589865 22.3581 6.52919 28 13.7691 28Z" fill="black"/>
<path d="M34.4827 24.4814H42.6853C46.3472 24.4814 48.9545 22.2811 48.9545 18.6832C48.9545 15.8882 47.3726 14.104 44.7946 13.5985V13.5094C46.9624 12.9741 48.31 11.3684 48.31 8.95999C48.31 5.62967 45.8785 3.54825 42.3924 3.54825H34.4827V24.4814ZM46.1128 9.22757C46.1128 11.3684 44.5895 12.7362 42.0994 12.7362H36.6798V5.45126H42.0994C44.5895 5.45126 46.1128 6.78932 46.1128 8.93024V9.22757ZM46.7574 18.7427C46.7574 21.0619 45.0875 22.5784 42.3631 22.5784H36.6798V14.5798H42.3338C45.0583 14.5798 46.7574 16.0368 46.7574 18.4453V18.7427Z" fill="black"/>
<path d="M64.3535 24.4814H66.6971L59.842 3.54825H57.1762L50.4089 24.4814H52.6354L54.3931 18.8021H62.5957L64.3535 24.4814ZM58.4358 5.83782H58.6116L62.0391 16.9289H54.979L58.4358 5.83782Z" fill="black"/>
<path d="M75.9442 24.8978C80.4556 24.8978 83.4144 22.4298 83.4144 18.7129C83.4144 15.2637 81.188 13.6283 77.819 13.0633L74.8309 12.5578C72.5459 12.1713 71.0225 11.1604 71.0225 8.93025C71.0225 6.67039 72.7217 4.94578 75.9442 4.94578C79.0787 4.94578 80.6899 6.55146 80.8657 8.841H83.1215C82.9457 5.80808 80.6606 3.10223 75.9734 3.10223C71.3448 3.10223 68.7961 5.74862 68.7961 9.01941C68.7961 12.4984 71.1105 14.104 74.2743 14.6393L77.2917 15.115C79.8111 15.5611 81.2173 16.6017 81.2173 18.8021C81.2173 21.389 79.1374 23.0542 75.9734 23.0542C72.6924 23.0542 70.6417 21.4485 70.4659 18.7129H68.2395C68.4153 22.2811 71.1105 24.8978 75.9442 24.8978Z" fill="black"/>
<path d="M86.7146 3.54825V24.4814H99.956V22.5487H88.912V14.5798H99.0767V12.6768H88.912V5.481H99.956V3.54825H86.7146Z" fill="black"/>
</g>
<defs>
<clipPath id="clip0_610_250">
<rect width="100" height="28" fill="white"/>
</clipPath>
</defs>
</svg>
